<svg id="sm" xmlns="http://www.w3.org/2000/svg" width="25" height="25" viewBox="0 0 25 25"><title>sm</title><path d="M7.59,6.26a8.43,8.43,0,0,1,1.88.19A4.21,4.21,0,0,1,10.92,7a2.81,2.81,0,0,1,.94,1.1,3.81,3.81,0,0,1,.33,1.68,3.12,3.12,0,0,1-.5,1.81,3.52,3.52,0,0,1-1.46,1.19,3.39,3.39,0,0,1,2,1.34,4,4,0,0,1,.65,2.31,4,4,0,0,1-.42,1.88,3.57,3.57,0,0,1-1.13,1.3,5,5,0,0,1-1.64.75,7.28,7.28,0,0,1-1.88.24h-7V6.26Zm-.41,5.81a2.32,2.32,0,0,0,1.4-.4,1.54,1.54,0,0,0,.54-1.31,1.66,1.66,0,0,0-.18-.82A1.18,1.18,0,0,0,8.45,9a1.9,1.9,0,0,0-.69-.26,4.47,4.47,0,0,0-.82-.07H4v3.36Zm.18,6.12a4.26,4.26,0,0,0,.89-.09A2.13,2.13,0,0,0,9,17.8a1.54,1.54,0,0,0,.52-.58,2.08,2.08,0,0,0,.18-.93,1.87,1.87,0,0,0-.62-1.59,2.69,2.69,0,0,0-1.65-.47H4v4Z" fill="#4d4d4d"/><path d="M17.36,18.14a2.54,2.54,0,0,0,1.85.63,2.57,2.57,0,0,0,1.5-.43,1.84,1.84,0,0,0,.76-.93H24a4.79,4.79,0,0,1-1.86,2.69,5.42,5.42,0,0,1-3,.81,6,6,0,0,1-2.22-.39,4.81,4.81,0,0,1-1.68-1.12,5,5,0,0,1-1.06-1.74,6.31,6.31,0,0,1-.37-2.22,6.15,6.15,0,0,1,.38-2.17,5.13,5.13,0,0,1,1.09-1.75A5,5,0,0,1,17,10.36a5.42,5.42,0,0,1,2.17-.42,5,5,0,0,1,2.31.51,4.52,4.52,0,0,1,1.62,1.38,5.63,5.63,0,0,1,.92,2,7.35,7.35,0,0,1,.2,2.31H16.66A2.88,2.88,0,0,0,17.36,18.14Zm3.29-5.46A2.13,2.13,0,0,0,19,12.1a2.23,2.23,0,0,0-1.86.8,2.09,2.09,0,0,0-.38.74,2.69,2.69,0,0,0-.13.68h4.65A2.75,2.75,0,0,0,20.65,12.68Z" fill="#4d4d4d"/><rect x="16.07" y="7.23" width="5.83" height="1.42" fill="#4d4d4d"/></svg>