<svg id="sm" xmlns="http://www.w3.org/2000/svg" width="25" height="25" viewBox="0 0 25 25"><title>sm</title><path d="M12.5,4.9c2.48,0,2.77,0,3.75,0A5,5,0,0,1,18,5.27,2.81,2.81,0,0,1,19,6,2.81,2.81,0,0,1,19.73,7a5,5,0,0,1,.32,1.72c0,1,.05,1.27.05,3.75s0,2.77-.05,3.75A5,5,0,0,1,19.73,18,3.17,3.17,0,0,1,18,19.73a5,5,0,0,1-1.72.32c-1,0-1.27.05-3.75.05s-2.77,0-3.75-.05A5,5,0,0,1,7,19.73,2.81,2.81,0,0,1,6,19,2.81,2.81,0,0,1,5.27,18,5,5,0,0,1,5,16.25c0-1,0-1.27,0-3.75s0-2.77,0-3.75A5,5,0,0,1,5.27,7,2.81,2.81,0,0,1,6,6,2.81,2.81,0,0,1,7,5.27,5,5,0,0,1,8.75,5c1,0,1.27,0,3.75,0m0-1.67c-2.52,0-2.83,0-3.82,0a7.17,7.17,0,0,0-2.25.43A4.71,4.71,0,0,0,3.71,6.43a7.17,7.17,0,0,0-.43,2.25c0,1,0,1.3,0,3.82s0,2.83,0,3.82a7.17,7.17,0,0,0,.43,2.25,4.71,4.71,0,0,0,2.72,2.72,7.17,7.17,0,0,0,2.25.43c1,0,1.3.05,3.82.05s2.83,0,3.82-.05a7.17,7.17,0,0,0,2.25-.43,4.71,4.71,0,0,0,2.72-2.72,7.17,7.17,0,0,0,.43-2.25c0-1,.05-1.3.05-3.82s0-2.83-.05-3.82a7.17,7.17,0,0,0-.43-2.25,4.71,4.71,0,0,0-2.72-2.72,7.17,7.17,0,0,0-2.25-.43c-1,0-1.3,0-3.82,0Z" fill="#4d4d4d"/><path d="M12.5,7.74a4.76,4.76,0,1,0,4.76,4.76A4.76,4.76,0,0,0,12.5,7.74Zm0,7.85a3.09,3.09,0,1,1,3.09-3.09A3.09,3.09,0,0,1,12.5,15.59Z" fill="#4d4d4d"/><circle cx="17.45" cy="7.55" r="1.11" fill="#4d4d4d"/></svg>