<svg id="sm" xmlns="http://www.w3.org/2000/svg" width="25" height="25" viewBox="0 0 25 25"><title>sm</title><path d="M22.42,6.82a8.27,8.27,0,0,1-2.34.64,4.07,4.07,0,0,0,1.8-2.25,8.54,8.54,0,0,1-2.59,1,4.07,4.07,0,0,0-7,2.78,4.08,4.08,0,0,0,.1.93A11.57,11.57,0,0,1,4,5.66a4.07,4.07,0,0,0,1.26,5.43,4,4,0,0,1-1.85-.51v.05a4.09,4.09,0,0,0,3.27,4,4.18,4.18,0,0,1-1.07.14,4.79,4.79,0,0,1-.77-.07,4.07,4.07,0,0,0,3.8,2.82,8.1,8.1,0,0,1-5,1.75,7.66,7.66,0,0,1-1-.06A11.47,11.47,0,0,0,8.82,21,11.5,11.5,0,0,0,20.4,9.45c0-.17,0-.35,0-.52A8.14,8.14,0,0,0,22.42,6.82Z" fill="#4d4d4d"/></svg>