<svg id="MotionGallery" xmlns="http://www.w3.org/2000/svg" width="600" height="600" viewBox="0 0 600 600"><title>imageicons2</title><path d="M316.8,264.37l-88.92,51.34a5,5,0,0,1-7.5-4.33V208.7a5,5,0,0,1,7.5-4.33l88.92,51.34A5,5,0,0,1,316.8,264.37Z"/><path d="M440.16,140.16V379.92H80.51V140.16m-20-40a20,20,0,0,0-20,20V399.88a20,20,0,0,0,20,20H460.12a20,20,0,0,0,20-20V120.2a20,20,0,0,0-20-20Z"/><path d="M540,180.12h-20V459.84H120.47v20a20,20,0,0,0,20,20H542.71A17.33,17.33,0,0,0,560,482.47V200.12A20,20,0,0,0,540,180.12Z"/></svg>