<svg id="photography" xmlns="http://www.w3.org/2000/svg" width="140" height="140" viewBox="0 0 140 140"><title>photography</title><path d="M117.65,37.67,103.28,23.29v0H73.89L71.26,20.7H30.53L27.9,23.33H12.6a2.59,2.59,0,0,0-2.6,2.6V114a2.59,2.59,0,0,0,2.6,2.6H27.9l2.63,2.7H71.26l2.63-2.7h29.39v.11l14.37-14.38H130V37.67ZM88.87,72.37A2.41,2.41,0,1,1,91.28,70,2.4,2.4,0,0,1,88.87,72.37Zm0-17.39a2.18,2.18,0,1,1,2.41-2.16A2.29,2.29,0,0,1,88.87,55Zm0-14.9c-1.33,0-2.4-.75-2.4-1.68s1.07-1.69,2.4-1.69,2.41.76,2.41,1.69S90.2,40.08,88.87,40.08Zm0-10c-1.33,0-2.4-.54-2.4-1.2s1.07-1.2,2.4-1.2,2.41.54,2.41,1.2S90.2,30.11,88.87,30.11Zm17,41.66h-4.84a1.81,1.81,0,1,1,0-3.61h4.84a1.81,1.81,0,1,1,0,3.61Z" fill="#4e4e4e"/></svg>